<svg width="240" height="240" viewBox="0 0 240 240" fill="none" xmlns="http://www.w3.org/2000/svg">
<circle cx="120" cy="120" r="119" stroke="#056800" stroke-width="3" stroke-dasharray="4 4"/>
<circle cx="120" cy="121" r="110" fill="#056800"/>
<path fill-rule="evenodd" clip-rule="evenodd" d="M118 61.9936C114.936 61.9936 111.902 62.5368 109.071 63.5922C106.24 64.6476 103.668 66.1945 101.501 68.1447C99.3341 70.0948 97.6154 72.4099 96.4428 74.9579C95.2702 77.5059 94.6667 80.2368 94.6667 82.9947C94.6667 85.7526 95.2702 88.4835 96.4428 91.0314C97.6154 93.5794 99.3341 95.8945 101.501 97.8447C103.668 99.7948 106.24 101.342 109.071 102.397C111.902 103.453 114.936 103.996 118 103.996C124.188 103.996 130.123 101.783 134.499 97.8447C138.875 93.9062 141.333 88.5645 141.333 82.9947C141.333 77.4248 138.875 72.0831 134.499 68.1447C130.123 64.2062 124.188 61.9936 118 61.9936ZM79.1111 82.9947C79.1126 76.3721 81.2015 69.8858 85.1353 64.2892C89.069 58.6925 94.6861 54.2151 101.334 51.377C107.982 48.539 115.389 47.4566 122.693 48.2558C129.997 49.055 136.9 51.7028 142.599 55.8918C148.298 60.0808 152.559 65.639 154.889 71.9209C157.218 78.2029 157.52 84.9507 155.758 91.3807C153.997 97.8107 150.245 103.659 144.938 108.246C139.631 112.834 132.987 115.972 125.778 117.296V152.998C125.778 154.855 124.958 156.635 123.5 157.948C122.041 159.261 120.063 159.999 118 159.999C115.937 159.999 113.959 159.261 112.5 157.948C111.042 156.635 110.222 154.855 110.222 152.998V117.296C101.44 115.68 93.5466 111.384 87.8778 105.134C82.209 98.8833 79.1122 91.0629 79.1111 82.9947ZM98.47 146.698C98.6247 147.607 98.5788 148.535 98.3349 149.428C98.0911 150.321 97.654 151.163 97.0487 151.904C96.4433 152.645 95.6817 153.272 94.8072 153.748C93.9327 154.224 92.9626 154.54 91.9522 154.678C82.0122 156.036 74.1178 158.101 68.93 160.384C59.4411 164.563 70.5322 167.566 76.3189 169.19C86.64 172.095 101.379 173.999 118 173.999C134.621 173.999 149.36 172.095 159.681 169.19C165.507 167.552 176.559 164.57 167.07 160.384C161.882 158.101 153.988 156.043 144.048 154.678C143.026 154.552 142.043 154.245 141.155 153.773C140.267 153.302 139.491 152.676 138.874 151.933C138.257 151.19 137.81 150.343 137.56 149.443C137.31 148.543 137.261 147.607 137.416 146.689C137.571 145.772 137.927 144.891 138.464 144.099C139.001 143.307 139.707 142.618 140.542 142.074C141.377 141.529 142.324 141.14 143.328 140.928C144.331 140.716 145.372 140.685 146.389 140.839C157.184 142.309 166.782 144.668 173.914 147.811C180.79 150.842 188 155.945 188 163.499C188 169.176 183.924 173.299 179.958 175.938C163.236 187.055 137.724 188 118 188C100.251 188 83.8789 185.984 71.6833 182.554C61.9611 179.824 48 174.433 48 163.499C48 155.938 55.21 150.842 62.0856 147.818C69.2178 144.668 78.8233 142.316 89.6033 140.839C90.6135 140.699 91.6444 140.741 92.6368 140.96C93.6293 141.18 94.564 141.573 95.3874 142.118C96.2109 142.663 96.907 143.348 97.4359 144.135C97.9648 144.922 98.3162 145.789 98.47 146.698Z" fill="white"/>
</svg>
