<svg width="118" height="99" viewBox="0 0 118 99" fill="none" xmlns="http://www.w3.org/2000/svg">
<g clip-path="url(#clip0_8_15)">
<path d="M40.5281 12.4987C41.7929 12.7646 42.8801 13.4411 43.5504 14.3795C44.2207 15.3178 44.4193 16.4412 44.1025 17.5023L24.4358 83.5023C24.2884 84.0358 24.0158 84.5394 23.634 84.9836C23.2521 85.4277 22.7687 85.8037 22.2119 86.0895C21.655 86.3752 21.0359 86.5651 20.3907 86.6481C19.7455 86.731 19.087 86.7053 18.4538 86.5725C17.8205 86.4396 17.2251 86.2023 16.7023 85.8744C16.1795 85.5465 15.7397 85.1345 15.4087 84.6625C15.0777 84.1905 14.862 83.6679 14.7742 83.1253C14.6864 82.5826 14.7283 82.0307 14.8975 81.5017L34.5642 15.5017C34.7205 14.9759 34.9989 14.4811 35.3833 14.0456C35.7677 13.61 36.2506 13.2423 36.8045 12.9634C37.3583 12.6846 37.9722 12.5 38.6111 12.4202C39.2501 12.3405 39.9014 12.3672 40.5281 12.4987ZM83.4358 15.4976L103.102 81.4976C103.272 82.0265 103.314 82.5785 103.226 83.1211C103.138 83.6638 102.922 84.1864 102.591 84.6584C102.26 85.1304 101.821 85.5424 101.298 85.8703C100.775 86.1982 100.179 86.4355 99.5462 86.5683C98.913 86.7012 98.2545 86.7269 97.6093 86.6439C96.964 86.561 96.345 86.3711 95.7881 86.0853C95.2313 85.7996 94.7478 85.4236 94.366 84.9794C93.9842 84.5353 93.7116 84.0317 93.5642 83.4982L73.8975 17.4982C73.7283 16.9693 73.6864 16.4174 73.7742 15.8747C73.862 15.332 74.0777 14.8094 74.4087 14.3374C74.7397 13.8654 75.1795 13.4534 75.7023 13.1255C76.2251 12.7976 76.8205 12.5603 77.4538 12.4275C78.087 12.2947 78.7455 12.269 79.3907 12.3519C80.0359 12.4348 80.655 12.6247 81.2119 12.9105C81.7687 13.1963 82.2521 13.5722 82.634 14.0164C83.0158 14.4606 83.2884 14.9641 83.4358 15.4976ZM59 70.125C60.2042 70.1251 61.3666 70.496 62.2665 71.1674C63.1664 71.8388 63.7413 72.7639 63.8822 73.7673L63.9167 74.25V82.5C63.9153 83.5514 63.4354 84.5626 62.5752 85.3271C61.7149 86.0916 60.5391 86.5517 59.2881 86.6133C58.0371 86.6749 56.8053 86.3334 55.8443 85.6586C54.8833 84.9838 54.2658 84.0266 54.1177 82.9826L54.0833 82.5V74.25C54.0833 73.156 54.6013 72.1067 55.5234 71.3332C56.4454 70.5596 57.696 70.125 59 70.125ZM59 41.25C60.304 41.25 61.5545 41.6846 62.4766 42.4582C63.3987 43.2317 63.9167 44.281 63.9167 45.375V53.625C63.9167 54.719 63.3987 55.7682 62.4766 56.5418C61.5545 57.3154 60.304 57.75 59 57.75C57.696 57.75 56.4454 57.3154 55.5234 56.5418C54.6013 55.7682 54.0833 54.719 54.0833 53.625V45.375C54.0833 44.281 54.6013 43.2317 55.5234 42.4582C56.4454 41.6846 57.696 41.25 59 41.25ZM59 12.375C60.2042 12.3751 61.3666 12.746 62.2665 13.4174C63.1664 14.0888 63.7413 15.0139 63.8822 16.0173L63.9167 16.5V24.75C63.9153 25.8014 63.4354 26.8126 62.5752 27.5771C61.7149 28.3416 60.5391 28.8017 59.2881 28.8633C58.0371 28.9249 56.8053 28.5834 55.8443 27.9086C54.8833 27.2338 54.2658 26.2766 54.1177 25.2326L54.0833 24.75V16.5C54.0833 15.406 54.6013 14.3567 55.5234 13.5832C56.4454 12.8096 57.696 12.375 59 12.375Z" fill="#1E1E1E"/>
</g>
<defs>
<clipPath id="clip0_8_15">
<rect width="118" height="99" fill="white"/>
</clipPath>
</defs>
</svg>
