<?xml version="1.0" ?><svg data-name="Layer 1" id="Layer_1" viewBox="0 0 100 100" xmlns="http://www.w3.org/2000/svg"><defs><style>.cls-1{fill:#020000;}</style></defs><title/><path class="cls-1" d="M44.55,24.78c-7-3.65-13.86-.6-18.16,5.12.11-.33-.45-.57-.6-.23a22.59,22.59,0,0,0-1,2.64l0,0a.74.74,0,0,0-.1.34c-2,6.95-.65,15,6.95,17.82,6.94,2.62,15.46-.44,18.68-7.21S51.27,28.26,44.55,24.78Zm4.36,18.46a13.94,13.94,0,0,1-15.54,6.67c-7.81-2-9.59-9.67-8.06-16.5a.7.7,0,0,0,.77-.33C29.89,27.07,36,22.67,43.2,26A12.58,12.58,0,0,1,48.91,43.23Zm4.44,16c-.34-.94-.63-1.9-1-2.84a.63.63,0,0,0,.19-.11A27.84,27.84,0,0,0,55,53.68c.63-.7,1.27-1.39,1.91-2.08.94.22,1.84.62,2.77.89a33.74,33.74,0,0,1,3.28,1,.53.53,0,0,0,.63-.17A.64.64,0,0,0,64.2,53c1.59-2.54,2.16-5.92,3.11-8.8a.89.89,0,0,0,0-1.67c-1.85-.73-3.84-1.09-5.55-2.1a34,34,0,0,0-.28-5.39h0a45.57,45.57,0,0,0,5.38-5.54.75.75,0,0,0,.52-1A22.71,22.71,0,0,0,65.19,25,23,23,0,0,0,63,22.06c0-.56-.44-1.16-1.07-.9-1.79.72-3.63,1.27-5.48,1.82A71.78,71.78,0,0,0,51.22,18,33.13,33.13,0,0,1,53,12.38a.59.59,0,0,0-.53-.84l0,0a21.1,21.1,0,0,0-4-1.86A39.26,39.26,0,0,0,44,8a.74.74,0,0,0-1.27,0,57.55,57.55,0,0,0-3,5.72,36.56,36.56,0,0,0-5.69.08c-.84,0-1.81,0-2.69.11a16.69,16.69,0,0,0-1.08-2.6c-.42-.92-.86-1.83-1.3-2.74.09-.44-.2-.94-.76-.76A30.53,30.53,0,0,0,20.08,12a.29.29,0,0,0-.06.37.47.47,0,0,0-.24.61,45.84,45.84,0,0,0,2.61,4.91.44.44,0,0,0,.11.13,21.45,21.45,0,0,0-2.34,2.53,16,16,0,0,0-2,2.66,44,44,0,0,0-7.56-.83.65.65,0,0,0-.79.35,38.35,38.35,0,0,0-2.67,8.66.49.49,0,0,0,0,.19.64.64,0,0,0,.12.8,18.51,18.51,0,0,0,3.44,2c.94.51,1.9,1,2.88,1.44a28,28,0,0,0-.82,5.85,4,4,0,0,0-1.29,1c-.56.52-1.09,1.06-1.61,1.61S8.73,45.44,8.2,46c-.43,0-.89.4-.71.89a59.64,59.64,0,0,0,3.78,7.67.39.39,0,0,0,.36.22.67.67,0,0,0,1,.7,24.37,24.37,0,0,1,5-1.91.37.37,0,0,0,.24-.15,16.07,16.07,0,0,0,4.77,5.35c-.28,1.68-.38,3.39-.52,5.08a.71.71,0,0,0,.07,1.35c2.87,1,5.83,1.64,8.69,2.67.44.16.78-.34.68-.71a58.54,58.54,0,0,0,3.08-5.27.76.76,0,0,0,.65-.12,23.85,23.85,0,0,1,3.07.15c1.12,0,2.25,0,3.37.08a16.28,16.28,0,0,0,1,2,16.73,16.73,0,0,0,1.91,3.33l0,0c-.63.69.46,1.7,1.25,1.08,1.14-.91,2.87-1.32,4.12-2.1s2.58-1.77,3.86-2.66a.64.64,0,0,0,.2-.23.65.65,0,0,0,.52-.79A23.31,23.31,0,0,0,53.35,59.27Zm-4.64,6c-1.11.6-2.37,1-3.43,1.68a.34.34,0,0,0,0,0,17.69,17.69,0,0,1-1.51-3.72c-.24-.71-.49-2.24-1.31-2.52a.56.56,0,0,0-.59.16c-2.2-.7-4.86-.52-7.15-.62a.89.89,0,0,0-.81,1.18c-.59.92-1.16,1.85-1.78,2.76a13.33,13.33,0,0,0-1.52,2.45,29.88,29.88,0,0,0-7.69-2.68c.39-1.62.84-3.25,1.09-4.89a.71.71,0,0,0-.26-.67.67.67,0,0,0-.17-.52c-.78-.87-1.74-1.59-2.56-2.43a24.31,24.31,0,0,1-2.38-2.88.59.59,0,0,0-1.08.29.46.46,0,0,0-.15,0,16.5,16.5,0,0,0-5.29,1.57.49.49,0,0,0,0-.2c-1.14-2.46-2.06-5-3.14-7.47.5-.49,1-1,1.52-1.44s1.11-1,1.69-1.42,1.2-.65,1.5-1.18a.7.7,0,0,0,0-.57c.8-2,.7-4.34,1.25-6.4.18-.5-.28-.82-.7-.78-1-.67-2-1.26-3-1.87A21.26,21.26,0,0,0,8,31.25c1-2.63,2-5.24,3.12-7.85,2.3.28,4.59.74,6.89,1a.47.47,0,0,0,.37-.11.57.57,0,0,0,.58-.16,17.91,17.91,0,0,0,2.08-2.9A26.2,26.2,0,0,0,23.13,18a.21.21,0,0,0,0-.22.43.43,0,0,0,0-.36,44.83,44.83,0,0,0-2.29-4.92.51.51,0,0,0-.23-.2c2.48-.92,5-2,7.42-3,.35.84.69,1.68,1,2.52a15.13,15.13,0,0,0,1.27,3,.64.64,0,0,0,1.17-.15c.86.13,1.81.08,2.62.14,1.93.14,3.9.42,5.84.44a.68.68,0,0,0,.72-.82A31.93,31.93,0,0,0,44,9c1.22.75,2.53,1.35,3.81,2a24,24,0,0,0,3.79,1.69,19.35,19.35,0,0,0-1.92,5.08.8.8,0,0,0,.74,1c1.63,1.89,3.33,3.74,5.11,5.47A.73.73,0,0,0,56.74,24a47.16,47.16,0,0,0,5.68-1.15.79.79,0,0,0,.2-.1c.39,1,.86,2,1.31,3a16.39,16.39,0,0,0,1.9,3.47c-1.8,1.62-3.61,3.24-5.31,5a.59.59,0,0,0-.1.77,34,34,0,0,0-.14,5.88.72.72,0,0,0,1,.62c1.55,1.25,3.41,1.82,5.19,2.73-.58,1.18-1.13,2.37-1.62,3.6-.59,1.47-1.36,2.94-1.8,4.46A25.57,25.57,0,0,0,60,51.07C59,50.76,58,50,56.94,50a.82.82,0,0,0-.78.83c-.74.71-1.48,1.41-2.21,2.14a19.56,19.56,0,0,0-2.38,2.57.35.35,0,0,0-.29.41A19.85,19.85,0,0,0,52,59.63a15.17,15.17,0,0,0,1.08,3.07C51.66,63.55,50.2,64.43,48.7,65.24Zm32,2.4c2.14,3.35.62,9-2.84,11-3.81,2.19-8.62-.23-11.05-3.32-.2-.25.14-.61.36-.36,2.11,2.45,5.53,4.29,8.86,3.43,3.59-.93,5.71-6.2,4.08-9.44-3.71-7.39-15-2.12-11.72,5.39a.55.55,0,0,1-.95.55c-2.45-3.58-.23-8,3.21-9.93A7.51,7.51,0,0,1,80.7,67.64Zm12.08,7.47a31.1,31.1,0,0,0,.2-5.85.48.48,0,0,0-.28-.4.65.65,0,0,0-.35-.37,10.36,10.36,0,0,0-3.58-.3.62.62,0,0,0,0-.06c-.61-1.57-1.41-3.06-2-4.65.34-.39.63-.85.93-1.27s.76-1,1.11-1.47a.33.33,0,0,0,.05-.31.52.52,0,0,0-.14-.44,42.3,42.3,0,0,1-3.26-3.43.58.58,0,0,0-.77-.35,8.54,8.54,0,0,0-2,1.56,12.32,12.32,0,0,0-1.44,1.37,9.79,9.79,0,0,0-3.89-1.69c0-1.13.07-2.28,0-3.41A.91.91,0,0,0,76.59,53a28.36,28.36,0,0,0-5.83.36.71.71,0,0,0-.82.45,5.35,5.35,0,0,0,.11,2.53c.08.42.18.83.29,1.24a9.22,9.22,0,0,0-4.09,1.72c-1.32-.77-2.16-2.16-3.72-2.52h-.05a.4.4,0,0,0-.33,0,7.19,7.19,0,0,0-1.69,1.94c-.6.79-1.2,1.57-1.78,2.37a.38.38,0,0,0,.06.54h0v0a.31.31,0,0,0,.13.3c-.12,0,.06.35.05.35l.14.35a8.86,8.86,0,0,0,.45.9,5.83,5.83,0,0,0,.78,1.13.73.73,0,0,0,0,.08c-.24,1.25-1,2.55-1,3.82a9.25,9.25,0,0,0-3.82.12.27.27,0,0,0-.19.31.21.21,0,0,0-.09.14,33.7,33.7,0,0,0-.41,5.92.65.65,0,0,0,.46,1,11.24,11.24,0,0,0,2.32-.26c.38-.05.83-.08,1.24-.17a6.57,6.57,0,0,0,.66,1.09c.23.38.43.78.66,1.17A5.62,5.62,0,0,0,61,79.14a12,12,0,0,0-1.05,1.49,10.44,10.44,0,0,0-1.07,2,.23.23,0,0,0,.09.26.47.47,0,0,0,.08.3,12.37,12.37,0,0,0,1.43,1.6L62,86.45a.38.38,0,0,0,.43.11h.15a8.82,8.82,0,0,0,2.09-1,16.09,16.09,0,0,0,1.59-1A16.68,16.68,0,0,0,69.37,86a10.23,10.23,0,0,0,0,1.71c0,.66-.07,1.36.41,1.86h0a.63.63,0,0,0,.65.79c1-.05,2-.29,3-.36.71,0,1.43,0,2.13-.13a.6.6,0,0,0,.93-.26A11.18,11.18,0,0,0,77,87.32a4.28,4.28,0,0,0,.08-1.6A7.85,7.85,0,0,0,79,85.57,4.84,4.84,0,0,0,81,85a6,6,0,0,0,.92.78,13.94,13.94,0,0,0,1.68,1.08.55.55,0,0,0,.21.07.45.45,0,0,0,.61.1,10,10,0,0,0,2-2.08c.65-.72,1.28-1.46,1.91-2.19a.69.69,0,0,0,.43-1,7.68,7.68,0,0,0-1.45-1.52c-.42-.4-.83-.8-1.22-1.23a11,11,0,0,0,.9-1.85,11.59,11.59,0,0,0,.61-1.69c1.51.23,3,.69,4.56.77a.65.65,0,0,0,.57-1A.52.52,0,0,0,92.78,75.12ZM59.23,61.94h0a.24.24,0,0,0,.06-.09ZM86,76.89A12.93,12.93,0,0,0,84.75,79a.49.49,0,0,0,.42.65,12.49,12.49,0,0,0,2.25,2.8c-.6.56-1.21,1.12-1.78,1.71A14.85,14.85,0,0,0,84,85.86a12.69,12.69,0,0,1-1.36-1.07c-.41-.38-.78-.91-1.33-1.06a.51.51,0,0,0-.56.21,5.77,5.77,0,0,0-2,.56,9.93,9.93,0,0,0-2.14.78.23.23,0,0,0-.1.21A3.47,3.47,0,0,0,75.92,87a14.78,14.78,0,0,0-.42,1.88,9.6,9.6,0,0,0-4.74,0,6.11,6.11,0,0,0-.18-1.35,6.69,6.69,0,0,0-.47-2,.5.5,0,0,0-.27-.57,11.52,11.52,0,0,0-3.14-1,.42.42,0,0,0-.54-.22c-.67.29-1.31.67-2,1s-1.28.47-1.86.79l-1.08-1.27a13.64,13.64,0,0,0-1.4-1.63.52.52,0,0,0-.16-.09c.37-.44.73-.9,1.12-1.33s1.07-1,1.51-1.6a.55.55,0,0,0,0-.1.55.55,0,0,0,.05-.1v0a.45.45,0,0,0,0-.37,22.67,22.67,0,0,1-1.3-2A4.26,4.26,0,0,0,59.72,75a.63.63,0,0,0-.47,0,3.46,3.46,0,0,0-1.7-.22c-.59,0-1.21.07-1.81.14a33.66,33.66,0,0,0,0-5.55c1.11.24,2.27.39,3.39.55a.69.69,0,0,0,.71-1,10.46,10.46,0,0,0,.92-2.12A8.14,8.14,0,0,0,61.44,65a.58.58,0,0,0,.14-.77,14.86,14.86,0,0,0-1.49-1.56c-.25-.3-.44-.63-.67-.94l0,0a.5.5,0,0,0,.11-.1c.6-.8,1.21-1.59,1.84-2.37a10.52,10.52,0,0,0,1.3-1.66,9.74,9.74,0,0,1,1.45,1.53,3.41,3.41,0,0,0,1.66,1.44.66.66,0,0,0,.69-.25l.09,0c.77-.33,1.52-.69,2.32-1s1.42-.34,2.09-.63a.51.51,0,0,0,.29-.61.35.35,0,0,0,.08-.28,20,20,0,0,1,0-3.57,45.8,45.8,0,0,1,5,.44c-.27,1.08-.4,2.22-.57,3.3a.91.91,0,0,0,1.44.89,12.73,12.73,0,0,1,3.64,1.27.51.51,0,0,0,.76-.28,10,10,0,0,0,2-1.31A14,14,0,0,0,85,57.32a12,12,0,0,0,2.75,3.32c-.32.29-.63.59-.94.9a7.46,7.46,0,0,0-1.2,1.38.6.6,0,0,0,.17.8,21.64,21.64,0,0,0,1.52,5,.63.63,0,0,0,.34.31h0l.11,0,0,0a18.23,18.23,0,0,0,4.16.56,39.34,39.34,0,0,0-.45,5.06c-1.26-.24-2.6-.28-3.86-.43-.35,0-.55.28-.55.6C86.72,75.52,86.39,76.24,86,76.89Z"/></svg>